<svg width="21" height="5" viewBox="0 0 21 5" fill="none" xmlns="http://www.w3.org/2000/svg">
<path d="M2.5 5C1.11929 5 0 3.88071 0 2.5C0 1.11929 1.11929 0 2.5 0C3.88071 0 5 1.11929 5 2.5C5 3.88071 3.88071 5 2.5 5Z" fill="white"/>
<path d="M10.5 5C9.11929 5 8 3.88071 8 2.5C8 1.11929 9.11929 0 10.5 0C11.8807 0 13 1.11929 13 2.5C13 3.88071 11.8807 5 10.5 5Z" fill="white"/>
<path d="M18 5C16.6193 5 15.5 3.88071 15.5 2.5C15.5 1.11929 16.6193 0 18 0C19.3807 0 20.5 1.11929 20.5 2.5C20.5 3.88071 19.3807 5 18 5Z" fill="white"/>
</svg>
